<?xml version="1.0"?>
<svg width="1772" height="865" xmlns="http://www.w3.org/2000/svg" xmlns:svg="http://www.w3.org/2000/svg" clip-rule="evenodd" fill-rule="evenodd" stroke-linejoin="round" xml:space="preserve">
 <title>logo</title>

 <g class="layer" display="inline">
  <title>Layer 1</title>
  <path d="m436.97,864.61l-2.01,-0.86c-9.44,-4.26 -67.87,-30.16 -129.81,-57.62c-92.45,-40.93 -213.91,-95.67 -296.8,-133.78l-8.35,-3.86l0,-549.91l8.86,2.76c13.12,4.03 35.23,10.94 49.22,15.37l17.44,5.47l1.21,128.94c0.69,75.47 1.27,176.61 1.27,224.79l0,87.61c0,4.61 2.76,8.81 7.02,10.59l353.33,151.22l-0.63,63.78c-0.23,22.28 -0.52,42.31 -0.75,55.49zm459.48,-752.71c0.46,28.72 1.55,112.6 1.55,274.06l0,281.78l-6.33,2.88c-7.2,3.22 -46.8,21.41 -88.02,40.35c-41.1,18.88 -126.81,57.97 -190.36,86.86c-63.61,28.9 -125.95,57.22 -138.56,62.98c-2.65,1.21 -5.35,2.42 -7.94,3.57c-0.23,-13.59 -0.46,-34.31 -0.46,-55.09l0,-65.28l4.78,-2.36c14.79,-7.25 308.08,-142.53 313.72,-144.66l4.43,-1.67c4.43,-1.73 7.43,-5.99 7.43,-10.76l0,-441.98c6.68,-1.96 31.95,-9.73 58.95,-18.13c16,-5.01 30.74,-9.56 40.81,-12.55zm-736.19,58.6c20.44,5.87 222.95,66.72 264.97,79.67l13.18,4.03l-0.29,85.54c-0.17,51.75 -0.4,148.11 -0.46,214.14c-0.06,53.53 -0.63,86.17 -0.98,102c-24.29,-10.19 -77.02,-32.06 -136.95,-56.76c-65.74,-27.06 -121.98,-50.54 -140.57,-58.6c-0.4,-23.2 -0.52,-99.93 -0.29,-189.9c0.29,-105.98 0.58,-155.94 1.32,-178.22l0.06,-1.9zm555.61,-1.9c0.52,22.85 1.44,79.84 1.44,183.23l0,191.34l-13.12,5.93c-18.71,8.4 -122.84,54.51 -213.91,94.58c-8.81,3.91 -17.67,7.71 -24.7,10.65c0,-32.7 0.12,-108.62 0.29,-196.41l0.52,-204.76l88.82,-29.99c53.19,-17.96 113.75,-38.57 134.64,-45.82c9.1,-3.17 18.71,-6.33 26.02,-8.75zm-266.58,-83.3c3.68,0.86 21.24,4.89 36.78,9.04c110.18,29.53 170.79,45.76 202.34,54.28c-12.89,4.43 -30.62,10.48 -54.11,18.19l-138.38,45.65l-44.21,14.56l-59.69,-17.61c-34.71,-10.25 -100.28,-29.65 -145.69,-43.12c-19.74,-5.81 -38.51,-11.34 -53.76,-15.77c27.63,-7.25 73.11,-19.05 142.7,-36.67c57.74,-14.62 106.84,-27 114.03,-28.55zm-0.06,-85.31c15.14,3.4 76.56,17.67 206.08,47.72c83.35,19.4 171.31,39.6 195.37,44.96l8.58,1.96c-10.48,3.34 -23.49,7.37 -38.91,12.09l-35.11,10.65l-80.13,-20.55c-45.76,-11.69 -121.35,-31.08 -167.91,-43.06l-84.62,-21.7a11.46,11.46 0 0 0 -5.58,-0.06l-155.25,37.07c-85.48,20.44 -166.42,39.89 -179.77,43.23l-21.13,5.35l-48.01,-14.97c-4.49,-1.44 -8.81,-2.82 -12.84,-4.14c42.25,-10.07 128.14,-30.11 279.76,-65.45c68.9,-16.06 126.87,-29.76 138.1,-32.7c0.46,-0.12 0.98,-0.29 1.38,-0.4z" fill="#55ad9b" id="svg_7"/>
  <g id="svg_14" transform="translate(20) matrix(1.25806, 0, 0, 1.25806, -222.581, -81.2903)">
   <text fill="#3b3030" font-family="Sans-serif" font-size="250" font-weight="bold" id="svg_12" stroke="null" stroke-dasharray="null" stroke-linecap="null" stroke-linejoin="null" stroke-opacity="null" stroke-width="0" text-anchor="middle" x="1260" xml:space="preserve" y="360">hong</text>
   <text fill="#3b3030" font-family="Sans-serif" font-size="250" font-weight="bold" id="svg_13" stroke="null" stroke-dasharray="null" stroke-linecap="null" stroke-linejoin="null" stroke-opacity="null" stroke-width="0" text-anchor="middle" x="1200" xml:space="preserve" y="600">tran</text>
  </g>
 </g>
</svg>